<svg width="140" height="116" viewBox="0 0 140 116" fill="none" xmlns="http://www.w3.org/2000/svg">
<path d="M55.4416 13.7185H84.6187C85.762 13.7185 86.8951 13.7185 88.0079 13.8602C89.318 13.9799 90.6351 13.7225 91.8038 13.1184C92.9724 12.5144 93.9441 11.5888 94.6041 10.4508C95.18 9.45141 95.4946 8.32295 95.5188 7.16977C95.543 6.01659 95.276 4.87593 94.7425 3.8533C94.209 2.83067 93.4262 1.95908 92.4666 1.31916C91.5069 0.679238 90.4014 0.291641 89.2523 0.192221C87.7246 0.0708184 86.2172 0 84.6187 0H55.6439C25.3741 0 -0.171124 24.7662 0.000863431 55.0259C0.102357 69.4483 5.90292 83.2455 16.1373 93.4078C26.3717 103.57 40.2094 109.273 54.6322 109.273H84.5783C86.1464 109.273 87.6842 109.212 89.2118 109.081C90.361 108.981 91.4665 108.594 92.4261 107.954C93.3857 107.314 94.1685 106.442 94.702 105.42C95.2355 104.397 95.5025 103.256 95.4783 102.103C95.4542 100.95 95.1396 99.8214 94.5637 98.822C93.9036 97.684 92.932 96.7584 91.7633 96.1544C90.5946 95.5503 89.2776 95.2929 87.9674 95.4126C86.8546 95.5037 85.7215 95.5543 84.5783 95.5543H54.6322C49.1782 95.5423 43.7814 94.4416 38.7583 92.3166C33.7353 90.1916 29.187 87.0852 25.3802 83.1795C21.5734 79.2737 18.5847 74.6473 16.5893 69.5713C14.5938 64.4954 13.6319 59.0722 13.7599 53.6197C14.2961 31.3017 33.1034 13.7185 55.4416 13.7185Z" fill="white"/>
<path d="M15.8136 83.6062L5.94963 108.818C5.59994 109.712 5.5292 110.691 5.74671 111.626C5.96422 112.562 6.4598 113.409 7.16822 114.057C7.87664 114.705 8.76471 115.124 9.71556 115.258C10.6664 115.392 11.6355 115.234 12.4953 114.807L40.1448 101.058L15.8136 83.6062Z" fill="#625FFD"/>
<path d="M107.139 32.2022C105.409 30.4688 103.484 28.9412 101.403 27.6495C100.732 27.2342 99.9849 26.9581 99.2054 26.8376C98.4259 26.7171 97.6301 26.7548 96.8654 26.9483C96.1008 27.1418 95.3829 27.4873 94.7545 27.9641C94.1262 28.4408 93.6002 29.0392 93.208 29.7235C92.4496 31.0529 92.2367 32.6248 92.6142 34.108C92.9916 35.5912 93.9298 36.8701 95.2314 37.6754C98.1173 39.4674 100.498 41.966 102.15 44.9347C103.801 47.9035 104.667 51.2444 104.667 54.6415C104.667 58.0385 103.801 61.3794 102.15 64.3482C100.498 67.317 98.1173 69.8155 95.2314 71.6075C94.139 72.2739 93.2939 73.2785 92.8244 74.4688C92.3548 75.6592 92.2866 76.9702 92.6299 78.2029C92.9733 79.4355 93.7095 80.5225 94.7268 81.2986C95.7441 82.0748 96.9869 82.4978 98.2665 82.5035C99.3394 82.5014 100.39 82.2001 101.302 81.6334C105.371 79.1141 108.818 75.7073 111.385 71.6679C113.951 67.6284 115.572 63.0609 116.124 58.3069C116.677 53.553 116.148 48.7356 114.576 44.215C113.004 39.6945 110.431 35.5878 107.048 32.2022H107.139Z" fill="#B0AFFE"/>
<path d="M88.706 62.8159C87.0897 62.8159 85.5096 62.3368 84.1655 61.439C82.8215 60.5412 81.7737 59.2651 81.1547 57.772C80.5357 56.2789 80.3733 54.6358 80.6879 53.0504C81.0025 51.465 81.78 50.0084 82.9222 48.8648C84.0644 47.7212 85.52 46.9419 87.105 46.6253C88.6901 46.3088 90.3333 46.4692 91.8272 47.0864C93.3211 47.7035 94.5985 48.7497 95.4979 50.0926C96.3973 51.4356 96.8785 53.015 96.8805 54.6314C96.8818 55.7057 96.6713 56.7698 96.2611 57.7627C95.8509 58.7556 95.249 59.658 94.4898 60.4181C93.7306 61.1783 92.829 61.7813 91.8366 62.1927C90.8441 62.6042 89.7803 62.8159 88.706 62.8159Z" fill="#625FFD"/>
<path d="M139.25 54.6314C139.265 63.9518 136.894 73.121 132.364 81.2667C127.835 89.4125 121.296 96.2639 113.371 101.169C112.298 101.833 111.061 102.184 109.8 102.181C108.295 102.183 106.83 101.692 105.631 100.782C104.432 99.8717 103.565 98.5937 103.161 97.1434C102.758 95.6932 102.842 94.1508 103.4 92.7527C103.957 91.3546 104.958 90.178 106.249 89.4032C112.147 85.7314 117.013 80.6171 120.387 74.543C123.761 68.4688 125.531 61.6352 125.531 54.687C125.531 47.7388 123.761 40.9052 120.387 34.8311C117.013 28.7569 112.147 23.6426 106.249 19.9708C105.236 19.3405 104.4 18.4648 103.816 17.4249C103.232 16.385 102.921 15.2145 102.91 14.0221C102.919 12.8042 103.252 11.6107 103.875 10.5639C104.497 9.51704 105.387 8.65449 106.452 8.06461C107.518 7.47473 108.721 7.17872 109.938 7.20691C111.156 7.23511 112.344 7.58649 113.381 8.22507C121.278 13.1285 127.796 19.9614 132.322 28.0802C136.847 36.199 139.232 45.3364 139.25 54.6314Z" fill="#B0AFFE"/>
<path d="M15.8136 83.6062L5.94957 108.818C5.59988 109.712 5.52914 110.691 5.74665 111.626C5.96416 112.562 6.45974 113.409 7.16816 114.057C7.87658 114.705 8.76465 115.124 9.7155 115.258C10.6664 115.392 11.6354 115.234 12.4952 114.807L40.1447 101.058L15.8136 83.6062Z" fill="white"/>
<path d="M88.7059 62.816C87.0896 62.816 85.5096 62.3368 84.1655 61.439C82.8214 60.5412 81.7737 59.2652 81.1547 57.7721C80.5357 56.279 80.3732 54.6359 80.6878 53.0504C81.0024 51.465 81.7799 50.0085 82.9221 48.8648C84.0644 47.7212 85.52 46.9419 87.105 46.6253C88.69 46.3088 90.3333 46.4692 91.8272 47.0864C93.321 47.7035 94.5984 48.7497 95.4979 50.0926C96.3973 51.4356 96.8784 53.015 96.8804 54.6314C96.8817 55.7057 96.6713 56.7698 96.2611 57.7627C95.8509 58.7557 95.2489 59.658 94.4897 60.4181C93.7305 61.1783 92.829 61.7813 91.8365 62.1927C90.8441 62.6042 89.7803 62.816 88.7059 62.816Z" fill="white"/>
</svg>
