<svg width="253" height="208" viewBox="0 0 253 208" fill="none" xmlns="http://www.w3.org/2000/svg">
<path d="M97.4416 13.7185H126.619C127.762 13.7185 128.895 13.7185 130.008 13.8602C131.318 13.9799 132.635 13.7225 133.804 13.1184C134.972 12.5144 135.944 11.5888 136.604 10.4508C137.18 9.45141 137.495 8.32295 137.519 7.16977C137.543 6.01659 137.276 4.87594 136.742 3.8533C136.209 2.83067 135.426 1.95908 134.467 1.31916C133.507 0.679238 132.401 0.291641 131.252 0.192221C129.725 0.0708184 128.217 0 126.619 0H97.6439C67.3741 0 41.8289 24.7662 42.0009 55.0259C42.1024 69.4483 47.9029 83.2455 58.1373 93.4078C68.3717 103.57 82.2094 109.273 96.6322 109.273H126.578C128.146 109.273 129.684 109.212 131.212 109.081C132.361 108.981 133.466 108.594 134.426 107.954C135.386 107.314 136.169 106.442 136.702 105.42C137.236 104.397 137.503 103.256 137.478 102.103C137.454 100.95 137.14 99.8214 136.564 98.822C135.904 97.684 134.932 96.7584 133.763 96.1544C132.595 95.5503 131.278 95.2929 129.967 95.4126C128.855 95.5037 127.721 95.5543 126.578 95.5543H96.6322C91.1782 95.5423 85.7814 94.4416 80.7583 92.3166C75.7353 90.1917 71.187 87.0852 67.3802 83.1795C63.5734 79.2737 60.5847 74.6473 58.5893 69.5714C56.5938 64.4954 55.6319 59.0722 55.7599 53.6197C56.2961 31.3017 75.1034 13.7185 97.4416 13.7185Z" fill="white"/>
<path d="M57.8136 83.6062L47.9496 108.818C47.5999 109.712 47.5292 110.691 47.7467 111.626C47.9642 112.562 48.4598 113.409 49.1682 114.057C49.8766 114.705 50.7647 115.124 51.7156 115.258C52.6664 115.392 53.6355 115.234 54.4953 114.807L82.1448 101.058L57.8136 83.6062Z" fill="#625FFD"/>
<path d="M149.139 32.2022C147.409 30.4688 145.484 28.9412 143.403 27.6495C142.732 27.2342 141.985 26.9581 141.205 26.8376C140.426 26.7171 139.63 26.7548 138.865 26.9483C138.101 27.1418 137.383 27.4873 136.755 27.9641C136.126 28.4408 135.6 29.0392 135.208 29.7235C134.45 31.0529 134.237 32.6248 134.614 34.108C134.992 35.5912 135.93 36.8701 137.231 37.6754C140.117 39.4674 142.498 41.966 144.15 44.9347C145.801 47.9035 146.667 51.2444 146.667 54.6415C146.667 58.0385 145.801 61.3794 144.15 64.3482C142.498 67.317 140.117 69.8155 137.231 71.6075C136.139 72.2739 135.294 73.2785 134.824 74.4688C134.355 75.6592 134.287 76.9702 134.63 78.2029C134.973 79.4355 135.71 80.5225 136.727 81.2986C137.744 82.0748 138.987 82.4978 140.266 82.5035C141.339 82.5014 142.39 82.2001 143.302 81.6334C147.371 79.1141 150.818 75.7073 153.385 71.6679C155.951 67.6284 157.572 63.0609 158.124 58.3069C158.677 53.553 158.148 48.7356 156.576 44.215C155.004 39.6945 152.431 35.5878 149.048 32.2022H149.139Z" fill="#B0AFFE"/>
<path d="M130.706 62.816C129.09 62.8159 127.51 62.3368 126.166 61.439C124.822 60.5412 123.774 59.2652 123.155 57.772C122.536 56.279 122.373 54.6359 122.688 53.0504C123.002 51.465 123.78 50.0085 124.922 48.8648C126.064 47.7212 127.52 46.9419 129.105 46.6253C130.69 46.3088 132.333 46.4692 133.827 47.0864C135.321 47.7035 136.598 48.7497 137.498 50.0926C138.397 51.4356 138.878 53.015 138.88 54.6314C138.882 55.7057 138.671 56.7698 138.261 57.7627C137.851 58.7556 137.249 59.658 136.49 60.4181C135.731 61.1783 134.829 61.7813 133.837 62.1927C132.844 62.6042 131.78 62.816 130.706 62.816Z" fill="#625FFD"/>
<path d="M181.25 54.6314C181.265 63.9518 178.894 73.121 174.364 81.2668C169.835 89.4125 163.296 96.2639 155.371 101.169C154.298 101.833 153.061 102.184 151.8 102.181C150.295 102.183 148.83 101.692 147.631 100.782C146.432 99.8717 145.565 98.5937 145.162 97.1434C144.758 95.6932 144.842 94.1508 145.4 92.7527C145.957 91.3546 146.958 90.178 148.249 89.4032C154.147 85.7314 159.013 80.6171 162.387 74.543C165.761 68.4688 167.531 61.6352 167.531 54.687C167.531 47.7388 165.761 40.9052 162.387 34.8311C159.013 28.7569 154.147 23.6426 148.249 19.9708C147.236 19.3405 146.4 18.4648 145.816 17.4249C145.232 16.385 144.921 15.2145 144.91 14.0221C144.919 12.8042 145.252 11.6107 145.875 10.5639C146.497 9.51705 147.387 8.6545 148.452 8.06462C149.518 7.47473 150.721 7.17872 151.938 7.20692C153.156 7.23512 154.344 7.5865 155.381 8.22508C163.278 13.1285 169.796 19.9614 174.322 28.0802C178.847 36.199 181.232 45.3364 181.25 54.6314Z" fill="#B0AFFE"/>
<path d="M57.8136 83.6062L47.9496 108.818C47.5999 109.712 47.5291 110.691 47.7466 111.626C47.9642 112.562 48.4597 113.409 49.1682 114.057C49.8766 114.705 50.7646 115.124 51.7155 115.258C52.6664 115.392 53.6354 115.234 54.4952 114.807L82.1447 101.058L57.8136 83.6062Z" fill="white"/>
<path d="M130.706 62.816C129.09 62.8159 127.51 62.3368 126.166 61.439C124.821 60.5412 123.774 59.2652 123.155 57.772C122.536 56.279 122.373 54.6359 122.688 53.0504C123.002 51.465 123.78 50.0085 124.922 48.8648C126.064 47.7212 127.52 46.9419 129.105 46.6253C130.69 46.3088 132.333 46.4692 133.827 47.0864C135.321 47.7035 136.598 48.7497 137.498 50.0926C138.397 51.4356 138.878 53.015 138.88 54.6314C138.882 55.7057 138.671 56.7698 138.261 57.7627C137.851 58.7556 137.249 59.658 136.49 60.4181C135.731 61.1783 134.829 61.7813 133.837 62.1927C132.844 62.6042 131.78 62.816 130.706 62.816Z" fill="white"/>
<path d="M1.344 164.572C1.344 162.65 1.764 160.932 2.604 159.42C3.444 157.89 4.592 156.704 6.048 155.864C7.504 155.006 9.128 154.576 10.92 154.576C13.104 154.576 14.9707 155.099 16.52 156.144C18.088 157.171 19.2267 158.627 19.936 160.512H17.64C17.08 159.187 16.2213 158.151 15.064 157.404C13.9253 156.658 12.544 156.284 10.92 156.284C9.48267 156.284 8.18533 156.62 7.028 157.292C5.88933 157.964 4.99333 158.935 4.34 160.204C3.68667 161.455 3.36 162.911 3.36 164.572C3.36 166.234 3.68667 167.69 4.34 168.94C4.99333 170.191 5.88933 171.152 7.028 171.824C8.18533 172.496 9.48267 172.832 10.92 172.832C12.544 172.832 13.9253 172.468 15.064 171.74C16.2213 170.994 17.08 169.967 17.64 168.66H19.936C19.2267 170.527 18.088 171.974 16.52 173C14.952 174.027 13.0853 174.54 10.92 174.54C9.128 174.54 7.504 174.12 6.048 173.28C4.592 172.422 3.444 171.236 2.604 169.724C1.764 168.212 1.344 166.495 1.344 164.572ZM30.5336 174.596C29.0962 174.596 27.7989 174.279 26.6416 173.644C25.5029 172.991 24.5976 172.076 23.9256 170.9C23.2722 169.706 22.9456 168.315 22.9456 166.728C22.9456 165.142 23.2816 163.76 23.9536 162.584C24.6256 161.39 25.5402 160.475 26.6976 159.84C27.8549 159.187 29.1522 158.86 30.5896 158.86C32.0269 158.86 33.3242 159.187 34.4816 159.84C35.6576 160.475 36.5722 161.39 37.2256 162.584C37.8976 163.76 38.2336 165.142 38.2336 166.728C38.2336 168.296 37.8976 169.678 37.2256 170.872C36.5536 172.067 35.6296 172.991 34.4536 173.644C33.2776 174.279 31.9709 174.596 30.5336 174.596ZM30.5336 172.888C31.5416 172.888 32.4749 172.664 33.3336 172.216C34.1922 171.75 34.8829 171.059 35.4056 170.144C35.9469 169.211 36.2176 168.072 36.2176 166.728C36.2176 165.384 35.9562 164.255 35.4336 163.34C34.9109 162.407 34.2202 161.716 33.3616 161.268C32.5029 160.802 31.5696 160.568 30.5616 160.568C29.5536 160.568 28.6202 160.802 27.7616 161.268C26.9029 161.716 26.2122 162.407 25.6896 163.34C25.1856 164.255 24.9336 165.384 24.9336 166.728C24.9336 168.072 25.1856 169.211 25.6896 170.144C26.2122 171.059 26.8936 171.75 27.7336 172.216C28.5922 172.664 29.5256 172.888 30.5336 172.888ZM48.9744 158.804C50.8037 158.804 52.2971 159.374 53.4544 160.512C54.6117 161.632 55.1904 163.266 55.1904 165.412V174.372H53.2584V165.636C53.2584 163.975 52.8384 162.706 51.9984 161.828C51.1771 160.951 50.0477 160.512 48.6104 160.512C47.1357 160.512 45.9597 160.979 45.0824 161.912C44.2051 162.846 43.7664 164.218 43.7664 166.028V174.372H41.8064V159.084H43.7664V161.688C44.2517 160.755 44.9517 160.046 45.8664 159.56C46.7811 159.056 47.8171 158.804 48.9744 158.804ZM62.0732 160.736V170.228C62.0732 171.162 62.2505 171.806 62.6052 172.16C62.9598 172.515 63.5852 172.692 64.4812 172.692H66.2732V174.372H64.1732C62.7918 174.372 61.7652 174.055 61.0932 173.42C60.4212 172.767 60.0852 171.703 60.0852 170.228V160.736H57.9572V159.084H60.0852V155.248H62.0732V159.084H66.2732V160.736H62.0732ZM68.6096 166.7C68.6096 165.132 68.9176 163.76 69.5336 162.584C70.1683 161.39 71.0363 160.475 72.1376 159.84C73.2576 159.187 74.5176 158.86 75.9176 158.86C77.3736 158.86 78.6243 159.196 79.6696 159.868C80.7336 160.54 81.499 161.399 81.9656 162.444V159.084H83.9256V174.372H81.9656V170.984C81.4803 172.03 80.7056 172.898 79.6416 173.588C78.5963 174.26 77.3456 174.596 75.8896 174.596C74.5083 174.596 73.2576 174.27 72.1376 173.616C71.0363 172.963 70.1683 172.039 69.5336 170.844C68.9176 169.65 68.6096 168.268 68.6096 166.7ZM81.9656 166.728C81.9656 165.496 81.7136 164.414 81.2096 163.48C80.7056 162.547 80.015 161.828 79.1376 161.324C78.279 160.82 77.327 160.568 76.2816 160.568C75.199 160.568 74.2283 160.811 73.3696 161.296C72.511 161.782 71.8296 162.491 71.3256 163.424C70.8403 164.339 70.5976 165.431 70.5976 166.7C70.5976 167.951 70.8403 169.052 71.3256 170.004C71.8296 170.938 72.511 171.656 73.3696 172.16C74.2283 172.646 75.199 172.888 76.2816 172.888C77.327 172.888 78.279 172.636 79.1376 172.132C80.015 171.628 80.7056 170.91 81.2096 169.976C81.7136 169.043 81.9656 167.96 81.9656 166.728ZM87.5042 166.728C87.5042 165.142 87.8215 163.76 88.4562 162.584C89.0908 161.39 89.9682 160.475 91.0882 159.84C92.2082 159.187 93.4868 158.86 94.9242 158.86C96.8095 158.86 98.3588 159.327 99.5722 160.26C100.804 161.194 101.597 162.463 101.952 164.068H99.8522C99.5908 162.967 99.0215 162.108 98.1442 161.492C97.2855 160.858 96.2122 160.54 94.9242 160.54C93.8975 160.54 92.9735 160.774 92.1522 161.24C91.3308 161.707 90.6775 162.407 90.1922 163.34C89.7255 164.255 89.4922 165.384 89.4922 166.728C89.4922 168.072 89.7255 169.211 90.1922 170.144C90.6775 171.078 91.3308 171.778 92.1522 172.244C92.9735 172.711 93.8975 172.944 94.9242 172.944C96.2122 172.944 97.2855 172.636 98.1442 172.02C99.0215 171.386 99.5908 170.508 99.8522 169.388H101.952C101.597 170.956 100.804 172.216 99.5722 173.168C98.3402 174.12 96.7908 174.596 94.9242 174.596C93.4868 174.596 92.2082 174.279 91.0882 173.644C89.9682 172.991 89.0908 172.076 88.4562 170.9C87.8215 169.706 87.5042 168.315 87.5042 166.728ZM108.12 160.736V170.228C108.12 171.162 108.297 171.806 108.652 172.16C109.007 172.515 109.632 172.692 110.528 172.692H112.32V174.372H110.22C108.839 174.372 107.812 174.055 107.14 173.42C106.468 172.767 106.132 171.703 106.132 170.228V160.736H104.004V159.084H106.132V155.248H108.12V159.084H112.32V160.736H108.12ZM120.817 174.596C119.062 174.596 117.625 174.195 116.505 173.392C115.403 172.571 114.787 171.46 114.657 170.06H116.673C116.766 170.919 117.167 171.619 117.877 172.16C118.605 172.683 119.575 172.944 120.789 172.944C121.853 172.944 122.683 172.692 123.281 172.188C123.897 171.684 124.205 171.059 124.205 170.312C124.205 169.79 124.037 169.36 123.701 169.024C123.365 168.688 122.935 168.427 122.413 168.24C121.909 168.035 121.218 167.82 120.341 167.596C119.202 167.298 118.278 166.999 117.569 166.7C116.859 166.402 116.253 165.963 115.749 165.384C115.263 164.787 115.021 163.994 115.021 163.004C115.021 162.258 115.245 161.567 115.693 160.932C116.141 160.298 116.775 159.794 117.597 159.42C118.418 159.047 119.351 158.86 120.397 158.86C122.039 158.86 123.365 159.28 124.373 160.12C125.381 160.942 125.922 162.08 125.997 163.536H124.037C123.981 162.64 123.626 161.922 122.973 161.38C122.338 160.82 121.461 160.54 120.341 160.54C119.351 160.54 118.549 160.774 117.933 161.24C117.317 161.707 117.008 162.286 117.008 162.976C117.008 163.574 117.186 164.068 117.541 164.46C117.914 164.834 118.371 165.132 118.913 165.356C119.454 165.562 120.182 165.795 121.097 166.056C122.198 166.355 123.075 166.644 123.729 166.924C124.382 167.204 124.942 167.615 125.409 168.156C125.875 168.698 126.118 169.416 126.137 170.312C126.137 171.134 125.913 171.871 125.465 172.524C125.017 173.159 124.391 173.663 123.589 174.036C122.786 174.41 121.862 174.596 120.817 174.596ZM146.666 164.264C147.767 164.47 148.7 165.03 149.466 165.944C150.231 166.859 150.614 167.923 150.614 169.136C150.614 170.126 150.362 171.022 149.858 171.824C149.372 172.608 148.654 173.234 147.702 173.7C146.75 174.148 145.611 174.372 144.286 174.372H137.51V154.8H144.09C146.068 154.8 147.571 155.258 148.598 156.172C149.643 157.087 150.166 158.272 150.166 159.728C150.166 160.942 149.839 161.931 149.186 162.696C148.532 163.443 147.692 163.966 146.666 164.264ZM139.47 163.452H144.034C145.359 163.452 146.376 163.144 147.086 162.528C147.814 161.894 148.178 161.026 148.178 159.924C148.178 158.842 147.814 157.992 147.086 157.376C146.376 156.76 145.331 156.452 143.95 156.452H139.47V163.452ZM144.146 172.72C145.564 172.72 146.666 172.384 147.45 171.712C148.252 171.04 148.654 170.116 148.654 168.94C148.654 167.764 148.234 166.831 147.394 166.14C146.572 165.431 145.462 165.076 144.062 165.076H139.47V172.72H144.146ZM167.461 159.084V174.372H165.501V171.684C165.053 172.636 164.362 173.364 163.429 173.868C162.495 174.372 161.45 174.624 160.293 174.624C158.463 174.624 156.97 174.064 155.813 172.944C154.655 171.806 154.077 170.163 154.077 168.016V159.084H156.009V167.792C156.009 169.454 156.419 170.723 157.241 171.6C158.081 172.478 159.219 172.916 160.657 172.916C162.131 172.916 163.307 172.45 164.185 171.516C165.062 170.583 165.501 169.211 165.501 167.4V159.084H167.461ZM171.039 166.7C171.039 165.132 171.357 163.76 171.991 162.584C172.626 161.39 173.494 160.475 174.595 159.84C175.715 159.187 176.975 158.86 178.375 158.86C179.719 158.86 180.933 159.187 182.015 159.84C183.098 160.494 183.891 161.343 184.395 162.388V153.652H186.355V174.372H184.395V170.956C183.929 172.02 183.163 172.898 182.099 173.588C181.035 174.26 179.785 174.596 178.347 174.596C176.947 174.596 175.687 174.27 174.567 173.616C173.466 172.963 172.598 172.039 171.963 170.844C171.347 169.65 171.039 168.268 171.039 166.7ZM184.395 166.728C184.395 165.496 184.143 164.414 183.639 163.48C183.135 162.547 182.445 161.828 181.567 161.324C180.709 160.82 179.757 160.568 178.711 160.568C177.629 160.568 176.658 160.811 175.799 161.296C174.941 161.782 174.259 162.491 173.755 163.424C173.27 164.339 173.027 165.431 173.027 166.7C173.027 167.951 173.27 169.052 173.755 170.004C174.259 170.938 174.941 171.656 175.799 172.16C176.658 172.646 177.629 172.888 178.711 172.888C179.757 172.888 180.709 172.636 181.567 172.132C182.445 171.628 183.135 170.91 183.639 169.976C184.143 169.043 184.395 167.96 184.395 166.728ZM189.934 166.7C189.934 165.132 190.251 163.76 190.886 162.584C191.521 161.39 192.389 160.475 193.49 159.84C194.61 159.187 195.87 158.86 197.27 158.86C198.614 158.86 199.827 159.187 200.91 159.84C201.993 160.494 202.786 161.343 203.29 162.388V153.652H205.25V174.372H203.29V170.956C202.823 172.02 202.058 172.898 200.994 173.588C199.93 174.26 198.679 174.596 197.242 174.596C195.842 174.596 194.582 174.27 193.462 173.616C192.361 172.963 191.493 172.039 190.858 170.844C190.242 169.65 189.934 168.268 189.934 166.7ZM203.29 166.728C203.29 165.496 203.038 164.414 202.534 163.48C202.03 162.547 201.339 161.828 200.462 161.324C199.603 160.82 198.651 160.568 197.606 160.568C196.523 160.568 195.553 160.811 194.694 161.296C193.835 161.782 193.154 162.491 192.65 163.424C192.165 164.339 191.922 165.431 191.922 166.7C191.922 167.951 192.165 169.052 192.65 170.004C193.154 170.938 193.835 171.656 194.694 172.16C195.553 172.646 196.523 172.888 197.606 172.888C198.651 172.888 199.603 172.636 200.462 172.132C201.339 171.628 202.03 170.91 202.534 169.976C203.038 169.043 203.29 167.96 203.29 166.728ZM222.324 159.084L213.252 181.568H211.208L214.176 174.288L207.904 159.084H210.06L215.268 172.132L220.308 159.084H222.324Z" fill="white"/>
<path d="M19.8861 198.175C19.1501 198.175 18.4994 198.047 17.9341 197.791C17.3794 197.535 16.9421 197.178 16.6221 196.719C16.3021 196.26 16.1314 195.748 16.1101 195.183H17.2941C17.3474 195.727 17.5874 196.207 18.0141 196.623C18.4407 197.028 19.0647 197.231 19.8861 197.231C20.6434 197.231 21.2407 197.039 21.6781 196.655C22.1261 196.26 22.3501 195.764 22.3501 195.167C22.3501 194.687 22.2274 194.303 21.9821 194.015C21.7367 193.716 21.4327 193.498 21.0701 193.359C20.7074 193.21 20.2061 193.05 19.5661 192.879C18.8194 192.676 18.2274 192.479 17.7901 192.287C17.3527 192.095 16.9794 191.796 16.6701 191.391C16.3607 190.986 16.2061 190.436 16.2061 189.743C16.2061 189.167 16.3554 188.655 16.6541 188.207C16.9527 187.748 17.3741 187.391 17.9181 187.135C18.4621 186.879 19.0861 186.751 19.7901 186.751C20.8247 186.751 21.6567 187.007 22.2861 187.519C22.9261 188.02 23.2941 188.671 23.3901 189.471H22.1741C22.0994 189.012 21.8487 188.607 21.4221 188.255C20.9954 187.892 20.4194 187.711 19.6941 187.711C19.0221 187.711 18.4621 187.892 18.0141 188.255C17.5661 188.607 17.3421 189.092 17.3421 189.711C17.3421 190.18 17.4647 190.559 17.7101 190.847C17.9554 191.135 18.2594 191.354 18.6221 191.503C18.9954 191.652 19.4967 191.812 20.1261 191.983C20.8514 192.186 21.4381 192.388 21.8861 192.591C22.3341 192.783 22.7127 193.082 23.0221 193.487C23.3314 193.892 23.4861 194.436 23.4861 195.119C23.4861 195.642 23.3474 196.138 23.0701 196.607C22.7927 197.076 22.3821 197.455 21.8381 197.743C21.2941 198.031 20.6434 198.175 19.8861 198.175ZM36.0503 189.167C37.0743 189.167 37.9063 189.492 38.5463 190.143C39.197 190.783 39.5223 191.716 39.5223 192.943V198.063H38.4183V193.071C38.4183 192.122 38.189 191.396 37.7303 190.895C37.2716 190.394 36.6476 190.143 35.8583 190.143C35.037 190.143 34.381 190.415 33.8903 190.959C33.3996 191.503 33.1543 192.292 33.1543 193.327V198.063H32.0503V193.071C32.0503 192.122 31.821 191.396 31.3623 190.895C30.9036 190.394 30.2743 190.143 29.4743 190.143C28.653 190.143 27.997 190.415 27.5063 190.959C27.0156 191.503 26.7703 192.292 26.7703 193.327V198.063H25.6503V189.327H26.7703V190.831C27.0476 190.287 27.4423 189.876 27.9543 189.599C28.4663 189.311 29.037 189.167 29.6663 189.167C30.4236 189.167 31.085 189.348 31.6503 189.711C32.2263 190.074 32.6423 190.607 32.8983 191.311C33.133 190.618 33.533 190.09 34.0983 189.727C34.6743 189.354 35.325 189.167 36.0503 189.167ZM41.4977 193.679C41.4977 192.783 41.6737 191.999 42.0257 191.327C42.3883 190.644 42.8843 190.122 43.5137 189.759C44.1537 189.386 44.8737 189.199 45.6737 189.199C46.5057 189.199 47.2203 189.391 47.8177 189.775C48.4257 190.159 48.863 190.65 49.1297 191.247V189.327H50.2497V198.063H49.1297V196.127C48.8523 196.724 48.4097 197.22 47.8017 197.615C47.2043 197.999 46.4897 198.191 45.6577 198.191C44.8683 198.191 44.1537 198.004 43.5137 197.631C42.8843 197.258 42.3883 196.73 42.0257 196.047C41.6737 195.364 41.4977 194.575 41.4977 193.679ZM49.1297 193.695C49.1297 192.991 48.9857 192.372 48.6977 191.839C48.4097 191.306 48.015 190.895 47.5137 190.607C47.023 190.319 46.479 190.175 45.8817 190.175C45.263 190.175 44.7083 190.314 44.2177 190.591C43.727 190.868 43.3377 191.274 43.0497 191.807C42.7723 192.33 42.6337 192.954 42.6337 193.679C42.6337 194.394 42.7723 195.023 43.0497 195.567C43.3377 196.1 43.727 196.511 44.2177 196.799C44.7083 197.076 45.263 197.215 45.8817 197.215C46.479 197.215 47.023 197.071 47.5137 196.783C48.015 196.495 48.4097 196.084 48.6977 195.551C48.9857 195.018 49.1297 194.399 49.1297 193.695ZM53.9266 190.879C54.1719 190.335 54.5452 189.914 55.0466 189.615C55.5586 189.316 56.1826 189.167 56.9186 189.167V190.335H56.6146C55.8039 190.335 55.1532 190.554 54.6626 190.991C54.1719 191.428 53.9266 192.159 53.9266 193.183V198.063H52.8066V189.327H53.9266V190.879ZM60.0594 190.271V195.695C60.0594 196.228 60.1608 196.596 60.3634 196.799C60.5661 197.002 60.9234 197.103 61.4354 197.103H62.4594V198.063H61.2594C60.4701 198.063 59.8834 197.882 59.4994 197.519C59.1154 197.146 58.9234 196.538 58.9234 195.695V190.271H57.7074V189.327H58.9234V187.135H60.0594V189.327H62.4594V190.271H60.0594ZM68.1852 193.695C68.1852 192.788 68.3665 191.999 68.7292 191.327C69.0918 190.644 69.5932 190.122 70.2332 189.759C70.8732 189.386 71.6038 189.199 72.4252 189.199C73.5025 189.199 74.3878 189.466 75.0812 189.999C75.7852 190.532 76.2385 191.258 76.4412 192.175H75.2412C75.0918 191.546 74.7665 191.055 74.2652 190.703C73.7745 190.34 73.1612 190.159 72.4252 190.159C71.8385 190.159 71.3105 190.292 70.8412 190.559C70.3718 190.826 69.9985 191.226 69.7212 191.759C69.4545 192.282 69.3212 192.927 69.3212 193.695C69.3212 194.463 69.4545 195.114 69.7212 195.647C69.9985 196.18 70.3718 196.58 70.8412 196.847C71.3105 197.114 71.8385 197.247 72.4252 197.247C73.1612 197.247 73.7745 197.071 74.2652 196.719C74.7665 196.356 75.0918 195.855 75.2412 195.215H76.4412C76.2385 196.111 75.7852 196.831 75.0812 197.375C74.3772 197.919 73.4918 198.191 72.4252 198.191C71.6038 198.191 70.8732 198.01 70.2332 197.647C69.5932 197.274 69.0918 196.751 68.7292 196.079C68.3665 195.396 68.1852 194.602 68.1852 193.695ZM82.3337 198.191C81.5123 198.191 80.771 198.01 80.1097 197.647C79.459 197.274 78.9417 196.751 78.5577 196.079C78.1843 195.396 77.9977 194.602 77.9977 193.695C77.9977 192.788 78.1897 191.999 78.5737 191.327C78.9577 190.644 79.4803 190.122 80.1417 189.759C80.803 189.386 81.5443 189.199 82.3657 189.199C83.187 189.199 83.9283 189.386 84.5897 189.759C85.2617 190.122 85.7843 190.644 86.1577 191.327C86.5417 191.999 86.7337 192.788 86.7337 193.695C86.7337 194.591 86.5417 195.38 86.1577 196.063C85.7737 196.746 85.2457 197.274 84.5737 197.647C83.9017 198.01 83.155 198.191 82.3337 198.191ZM82.3337 197.215C82.9097 197.215 83.443 197.087 83.9337 196.831C84.4243 196.564 84.819 196.17 85.1177 195.647C85.427 195.114 85.5817 194.463 85.5817 193.695C85.5817 192.927 85.4323 192.282 85.1337 191.759C84.835 191.226 84.4403 190.831 83.9497 190.575C83.459 190.308 82.9257 190.175 82.3497 190.175C81.7737 190.175 81.2403 190.308 80.7497 190.575C80.259 190.831 79.8643 191.226 79.5657 191.759C79.2777 192.282 79.1337 192.927 79.1337 193.695C79.1337 194.463 79.2777 195.114 79.5657 195.647C79.8643 196.17 80.2537 196.564 80.7337 196.831C81.2243 197.087 81.7577 197.215 82.3337 197.215ZM92.8713 189.167C93.9166 189.167 94.77 189.492 95.4313 190.143C96.0926 190.783 96.4233 191.716 96.4233 192.943V198.063H95.3193V193.071C95.3193 192.122 95.0793 191.396 94.5993 190.895C94.13 190.394 93.4846 190.143 92.6633 190.143C91.8206 190.143 91.1486 190.41 90.6473 190.943C90.146 191.476 89.8953 192.26 89.8953 193.295V198.063H88.7753V189.327H89.8953V190.815C90.1726 190.282 90.5726 189.876 91.0953 189.599C91.618 189.311 92.21 189.167 92.8713 189.167ZM100.356 190.271V195.695C100.356 196.228 100.458 196.596 100.66 196.799C100.863 197.002 101.22 197.103 101.732 197.103H102.756V198.063H101.556C100.767 198.063 100.18 197.882 99.7963 197.519C99.4123 197.146 99.2203 196.538 99.2203 195.695V190.271H98.0043V189.327H99.2203V187.135H100.356V189.327H102.756V190.271H100.356ZM104.091 193.679C104.091 192.783 104.267 191.999 104.619 191.327C104.982 190.644 105.478 190.122 106.107 189.759C106.747 189.386 107.467 189.199 108.267 189.199C109.099 189.199 109.814 189.391 110.411 189.775C111.019 190.159 111.457 190.65 111.723 191.247V189.327H112.843V198.063H111.723V196.127C111.446 196.724 111.003 197.22 110.395 197.615C109.798 197.999 109.083 198.191 108.251 198.191C107.462 198.191 106.747 198.004 106.107 197.631C105.478 197.258 104.982 196.73 104.619 196.047C104.267 195.364 104.091 194.575 104.091 193.679ZM111.723 193.695C111.723 192.991 111.579 192.372 111.291 191.839C111.003 191.306 110.609 190.895 110.107 190.607C109.617 190.319 109.073 190.175 108.475 190.175C107.857 190.175 107.302 190.314 106.811 190.591C106.321 190.868 105.931 191.274 105.643 191.807C105.366 192.33 105.227 192.954 105.227 193.679C105.227 194.394 105.366 195.023 105.643 195.567C105.931 196.1 106.321 196.511 106.811 196.799C107.302 197.076 107.857 197.215 108.475 197.215C109.073 197.215 109.617 197.071 110.107 196.783C110.609 196.495 111.003 196.084 111.291 195.551C111.579 195.018 111.723 194.399 111.723 193.695ZM114.888 193.695C114.888 192.788 115.07 191.999 115.432 191.327C115.795 190.644 116.296 190.122 116.936 189.759C117.576 189.386 118.307 189.199 119.128 189.199C120.206 189.199 121.091 189.466 121.784 189.999C122.488 190.532 122.942 191.258 123.144 192.175H121.944C121.795 191.546 121.47 191.055 120.968 190.703C120.478 190.34 119.864 190.159 119.128 190.159C118.542 190.159 118.014 190.292 117.544 190.559C117.075 190.826 116.702 191.226 116.424 191.759C116.158 192.282 116.024 192.927 116.024 193.695C116.024 194.463 116.158 195.114 116.424 195.647C116.702 196.18 117.075 196.58 117.544 196.847C118.014 197.114 118.542 197.247 119.128 197.247C119.864 197.247 120.478 197.071 120.968 196.719C121.47 196.356 121.795 195.855 121.944 195.215H123.144C122.942 196.111 122.488 196.831 121.784 197.375C121.08 197.919 120.195 198.191 119.128 198.191C118.307 198.191 117.576 198.01 116.936 197.647C116.296 197.274 115.795 196.751 115.432 196.079C115.07 195.396 114.888 194.602 114.888 193.695ZM126.669 190.271V195.695C126.669 196.228 126.77 196.596 126.973 196.799C127.175 197.002 127.533 197.103 128.045 197.103H129.069V198.063H127.869C127.079 198.063 126.493 197.882 126.109 197.519C125.725 197.146 125.533 196.538 125.533 195.695V190.271H124.317V189.327H125.533V187.135H126.669V189.327H129.069V190.271H126.669ZM146.235 187.023V198.063H145.115V189.247L141.179 198.063H140.363L136.427 189.279V198.063H135.307V187.023H136.491L140.763 196.591L145.035 187.023H146.235ZM148.263 193.679C148.263 192.783 148.439 191.999 148.791 191.327C149.154 190.644 149.65 190.122 150.279 189.759C150.919 189.386 151.639 189.199 152.439 189.199C153.271 189.199 153.986 189.391 154.583 189.775C155.191 190.159 155.629 190.65 155.895 191.247V189.327H157.015V198.063H155.895V196.127C155.618 196.724 155.175 197.22 154.567 197.615C153.97 197.999 153.255 198.191 152.423 198.191C151.634 198.191 150.919 198.004 150.279 197.631C149.65 197.258 149.154 196.73 148.791 196.047C148.439 195.364 148.263 194.575 148.263 193.679ZM155.895 193.695C155.895 192.991 155.751 192.372 155.463 191.839C155.175 191.306 154.781 190.895 154.279 190.607C153.789 190.319 153.245 190.175 152.647 190.175C152.029 190.175 151.474 190.314 150.983 190.591C150.493 190.868 150.103 191.274 149.815 191.807C149.538 192.33 149.399 192.954 149.399 193.679C149.399 194.394 149.538 195.023 149.815 195.567C150.103 196.1 150.493 196.511 150.983 196.799C151.474 197.076 152.029 197.215 152.647 197.215C153.245 197.215 153.789 197.071 154.279 196.783C154.781 196.495 155.175 196.084 155.463 195.551C155.751 195.018 155.895 194.399 155.895 193.695ZM163.668 189.167C164.714 189.167 165.567 189.492 166.228 190.143C166.89 190.783 167.22 191.716 167.22 192.943V198.063H166.116V193.071C166.116 192.122 165.876 191.396 165.396 190.895C164.927 190.394 164.282 190.143 163.46 190.143C162.618 190.143 161.946 190.41 161.444 190.943C160.943 191.476 160.692 192.26 160.692 193.295V198.063H159.572V189.327H160.692V190.815C160.97 190.282 161.37 189.876 161.892 189.599C162.415 189.311 163.007 189.167 163.668 189.167ZM169.185 193.679C169.185 192.783 169.361 191.999 169.713 191.327C170.076 190.644 170.572 190.122 171.201 189.759C171.841 189.386 172.561 189.199 173.361 189.199C174.193 189.199 174.908 189.391 175.505 189.775C176.113 190.159 176.551 190.65 176.817 191.247V189.327H177.937V198.063H176.817V196.127C176.54 196.724 176.097 197.22 175.489 197.615C174.892 197.999 174.177 198.191 173.345 198.191C172.556 198.191 171.841 198.004 171.201 197.631C170.572 197.258 170.076 196.73 169.713 196.047C169.361 195.364 169.185 194.575 169.185 193.679ZM176.817 193.695C176.817 192.991 176.673 192.372 176.385 191.839C176.097 191.306 175.703 190.895 175.201 190.607C174.711 190.319 174.167 190.175 173.569 190.175C172.951 190.175 172.396 190.314 171.905 190.591C171.415 190.868 171.025 191.274 170.737 191.807C170.46 192.33 170.321 192.954 170.321 193.679C170.321 194.394 170.46 195.023 170.737 195.567C171.025 196.1 171.415 196.511 171.905 196.799C172.396 197.076 172.951 197.215 173.569 197.215C174.167 197.215 174.711 197.071 175.201 196.783C175.703 196.495 176.097 196.084 176.385 195.551C176.673 195.018 176.817 194.399 176.817 193.695ZM184.158 189.199C184.979 189.199 185.694 189.391 186.302 189.775C186.91 190.159 187.347 190.644 187.614 191.231V189.327H188.734V198.287C188.734 199.087 188.558 199.796 188.206 200.415C187.865 201.034 187.385 201.508 186.766 201.839C186.147 202.18 185.443 202.351 184.654 202.351C183.534 202.351 182.601 202.084 181.854 201.551C181.118 201.018 180.659 200.292 180.478 199.375H181.582C181.774 199.983 182.137 200.468 182.67 200.831C183.214 201.194 183.875 201.375 184.654 201.375C185.219 201.375 185.726 201.252 186.174 201.007C186.622 200.772 186.974 200.42 187.23 199.951C187.486 199.482 187.614 198.927 187.614 198.287V196.127C187.337 196.724 186.894 197.22 186.286 197.615C185.689 197.999 184.979 198.191 184.158 198.191C183.358 198.191 182.638 198.004 181.998 197.631C181.369 197.258 180.873 196.73 180.51 196.047C180.158 195.364 179.982 194.575 179.982 193.679C179.982 192.783 180.158 191.999 180.51 191.327C180.873 190.644 181.369 190.122 181.998 189.759C182.638 189.386 183.358 189.199 184.158 189.199ZM187.614 193.695C187.614 192.991 187.47 192.372 187.182 191.839C186.894 191.306 186.499 190.895 185.998 190.607C185.507 190.319 184.963 190.175 184.366 190.175C183.747 190.175 183.193 190.314 182.702 190.591C182.211 190.868 181.822 191.274 181.534 191.807C181.257 192.33 181.118 192.954 181.118 193.679C181.118 194.394 181.257 195.023 181.534 195.567C181.822 196.1 182.211 196.511 182.702 196.799C183.193 197.076 183.747 197.215 184.366 197.215C184.963 197.215 185.507 197.071 185.998 196.783C186.499 196.495 186.894 196.084 187.182 195.551C187.47 195.018 187.614 194.399 187.614 193.695ZM199.195 193.247C199.195 193.631 199.184 193.924 199.163 194.127H191.915C191.947 194.788 192.107 195.354 192.395 195.823C192.683 196.292 193.062 196.65 193.531 196.895C194 197.13 194.512 197.247 195.067 197.247C195.792 197.247 196.4 197.071 196.891 196.719C197.392 196.367 197.723 195.892 197.883 195.295H199.067C198.854 196.148 198.395 196.847 197.691 197.391C196.998 197.924 196.123 198.191 195.067 198.191C194.246 198.191 193.51 198.01 192.859 197.647C192.208 197.274 191.696 196.751 191.323 196.079C190.96 195.396 190.779 194.602 190.779 193.695C190.779 192.788 190.96 191.994 191.323 191.311C191.686 190.628 192.192 190.106 192.843 189.743C193.494 189.38 194.235 189.199 195.067 189.199C195.899 189.199 196.624 189.38 197.243 189.743C197.872 190.106 198.352 190.596 198.683 191.215C199.024 191.823 199.195 192.5 199.195 193.247ZM198.059 193.215C198.07 192.564 197.936 192.01 197.659 191.551C197.392 191.092 197.024 190.746 196.555 190.511C196.086 190.276 195.574 190.159 195.019 190.159C194.187 190.159 193.478 190.426 192.891 190.959C192.304 191.492 191.979 192.244 191.915 193.215H198.059ZM202.364 190.879C202.609 190.335 202.983 189.914 203.484 189.615C203.996 189.316 204.62 189.167 205.356 189.167V190.335H205.052C204.241 190.335 203.591 190.554 203.1 190.991C202.609 191.428 202.364 192.159 202.364 193.183V198.063H201.244V189.327H202.364V190.879Z" fill="#D4D4F4"/>
</svg>
