<?xml version="1.0" encoding="utf-8"?>
<!-- Generator: Adobe Illustrator 23.0.5, SVG Export Plug-In . SVG Version: 6.00 Build 0)  -->
<svg version="1.1" id="Layer_1" xmlns="http://www.w3.org/2000/svg" xmlns:xlink="http://www.w3.org/1999/xlink" x="0px" y="0px"
	 viewBox="0 0 24 24" style="enable-background:new 0 0 24 24;" xml:space="preserve">
<style type="text/css">
	.st0{fill:#B4B1B1;}
</style>
<g>
	<path class="st0" d="M21.7,18.6c0.1,0.8-0.2,1.5-0.9,2.2c-1.4,1.4-2.8,2-4.4,2H7.6c-1.6,0-3-0.6-4.4-2c-0.7-0.7-1-1.4-0.9-2.2
		c0.2-1.6,2.2-2.7,3.5-3.5c0.2-0.1,0.3-0.2,0.5-0.3C8,13.8,10,13.3,12,13.3s4,0.5,5.8,1.6c0.1,0.1,0.3,0.2,0.5,0.3
		C19.6,15.8,21.5,17,21.7,18.6z"/>
</g>
<g>
	<circle class="st0" cx="12" cy="6.5" r="5.3"/>
</g>
</svg>
